<svg width="20" height="20" viewBox="0 0 20 20" fill="none" xmlns="http://www.w3.org/2000/svg">
<g id="Frame" clip-path="url(#clip0_8_573)">
<path id="Vector" d="M4.1665 14.1667C4.1665 14.6087 4.3421 15.0326 4.65466 15.3452C4.96722 15.6577 5.39114 15.8333 5.83317 15.8333C6.2752 15.8333 6.69912 15.6577 7.01168 15.3452C7.32424 15.0326 7.49984 14.6087 7.49984 14.1667C7.49984 13.7246 7.32424 13.3007 7.01168 12.9882C6.69912 12.6756 6.2752 12.5 5.83317 12.5C5.39114 12.5 4.96722 12.6756 4.65466 12.9882C4.3421 13.3007 4.1665 13.7246 4.1665 14.1667Z" stroke="#F2E0CC" stroke-width="1.5" stroke-linecap="round" stroke-linejoin="round"/>
<path id="Vector_2" d="M12.5 14.1667C12.5 14.6087 12.6756 15.0326 12.9882 15.3452C13.3007 15.6577 13.7246 15.8333 14.1667 15.8333C14.6087 15.8333 15.0326 15.6577 15.3452 15.3452C15.6577 15.0326 15.8333 14.6087 15.8333 14.1667C15.8333 13.7246 15.6577 13.3007 15.3452 12.9882C15.0326 12.6756 14.6087 12.5 14.1667 12.5C13.7246 12.5 13.3007 12.6756 12.9882 12.9882C12.6756 13.3007 12.5 13.7246 12.5 14.1667Z" stroke="#F2E0CC" stroke-width="1.5" stroke-linecap="round" stroke-linejoin="round"/>
<path id="Vector_3" d="M4.16667 14.1667H2.5V9.16667M2.5 9.16667L4.16667 5H11.6667L15 9.16667M2.5 9.16667H15M15 9.16667H15.8333C16.2754 9.16667 16.6993 9.34226 17.0118 9.65482C17.3244 9.96738 17.5 10.3913 17.5 10.8333V14.1667H15.8333M12.5 14.1667H7.5M10 9.16667V5" stroke="#F2E0CC" stroke-width="1.5" stroke-linecap="round" stroke-linejoin="round"/>
</g>
<defs>
<clipPath id="clip0_8_573">
<rect width="20" height="20" fill="white"/>
</clipPath>
</defs>
</svg>
