<svg width="20" height="20" viewBox="0 0 20 20" fill="none" xmlns="http://www.w3.org/2000/svg">
<g id="Frame" clip-path="url(#clip0_8_589)">
<path id="Vector" d="M6.66667 13.3333L5.46083 13.9366C5.32243 14.0057 5.20602 14.1121 5.12463 14.2436C5.04324 14.3752 5.00008 14.5269 5 14.6816V16.6666H15V14.6816C14.9999 14.5269 14.9568 14.3752 14.8754 14.2436C14.794 14.1121 14.6776 14.0057 14.5392 13.9366L13.3333 13.3333H6.66667Z" stroke="#F2E0CC" stroke-width="1.5" stroke-linecap="round" stroke-linejoin="round"/>
<path id="Vector_2" d="M7.08355 13.3333C6.56161 13.3332 6.04927 13.1931 5.59996 12.9275C5.15065 12.6619 4.78085 12.2806 4.52912 11.8234C4.27739 11.3661 4.15297 10.8497 4.16883 10.3281C4.18468 9.80636 4.34024 9.29848 4.61928 8.85739C4.89831 8.4163 5.29059 8.05817 5.7552 7.82036C6.2198 7.58254 6.73972 7.47376 7.26069 7.50535C7.78167 7.53694 8.28463 7.70775 8.71709 7.99997C9.14956 8.29218 9.49569 8.69509 9.71938 9.16667H10.281C10.5047 8.69509 10.8509 8.29218 11.2833 7.99997C11.7158 7.70775 12.2188 7.53694 12.7397 7.50535C13.2607 7.47376 13.7806 7.58254 14.2452 7.82036C14.7098 8.05817 15.1021 8.4163 15.3811 8.85739C15.6602 9.29848 15.8157 9.80636 15.8316 10.3281C15.8475 10.8497 15.723 11.3661 15.4713 11.8234C15.2196 12.2806 14.8498 12.6619 14.4005 12.9275C13.9512 13.1931 13.4388 13.3332 12.9169 13.3333H7.08355Z" stroke="#F2E0CC" stroke-width="1.5" stroke-linecap="round" stroke-linejoin="round"/>
<path id="Vector_3" d="M7.5 5H12.5" stroke="#F2E0CC" stroke-width="1.5" stroke-linecap="round" stroke-linejoin="round"/>
<path id="Vector_4" d="M10 2.5V9.16667" stroke="#F2E0CC" stroke-width="1.5" stroke-linecap="round" stroke-linejoin="round"/>
</g>
<defs>
<clipPath id="clip0_8_589">
<rect width="20" height="20" fill="white"/>
</clipPath>
</defs>
</svg>
