<svg width="48" height="48" viewBox="0 0 48 48" fill="none" xmlns="http://www.w3.org/2000/svg">
<g clip-path="url(#clip0_17_1769)">
<path d="M18 24L12 18H8C7.46957 18 6.96086 18.2107 6.58579 18.5858C6.21071 18.9609 6 19.4696 6 20V28C6 28.5304 6.21071 29.0391 6.58579 29.4142C6.96086 29.7893 7.46957 30 8 30H12L18 24Z" stroke="#F2E0CC" stroke-width="3.5" stroke-linecap="round" stroke-linejoin="round"/>
<path d="M30 24L36 18H40C40.5304 18 41.0391 18.2107 41.4142 18.5858C41.7893 18.9609 42 19.4696 42 20V28C42 28.5304 41.7893 29.0391 41.4142 29.4142C41.0391 29.7893 40.5304 30 40 30H36L30 24Z" stroke="#F2E0CC" stroke-width="3.5" stroke-linecap="round" stroke-linejoin="round"/>
<path d="M24 30L18 36V40C18 40.5304 18.2107 41.0391 18.5858 41.4142C18.9609 41.7893 19.4696 42 20 42H28C28.5304 42 29.0391 41.7893 29.4142 41.4142C29.7893 41.0391 30 40.5304 30 40V36L24 30Z" stroke="#F2E0CC" stroke-width="3.5" stroke-linecap="round" stroke-linejoin="round"/>
<path d="M24 18L18 12V8C18 7.46957 18.2107 6.96086 18.5858 6.58579C18.9609 6.21071 19.4696 6 20 6H28C28.5304 6 29.0391 6.21071 29.4142 6.58579C29.7893 6.96086 30 7.46957 30 8V12L24 18Z" stroke="#F2E0CC" stroke-width="3.5" stroke-linecap="round" stroke-linejoin="round"/>
</g>
<defs>
<clipPath id="clip0_17_1769">
<rect width="48" height="48" fill="white"/>
</clipPath>
</defs>
</svg>
