<svg width="40" height="40" viewBox="0 0 40 40" fill="none" xmlns="http://www.w3.org/2000/svg">
<g id="Shopping cart" clip-path="url(#clip0_8_1123)">
<path id="Icon" d="M1.66699 1.67358H8.33366L12.8003 23.5253C12.9527 24.2767 13.3702 24.9516 13.9796 25.4319C14.589 25.9123 15.3515 26.1674 16.1337 26.1528H32.3337C33.1158 26.1674 33.8784 25.9123 34.4877 25.4319C35.0971 24.9516 35.5146 24.2767 35.667 23.5253L38.3337 9.83331H10.0003M16.667 34.3125C16.667 35.2138 15.9208 35.9444 15.0003 35.9444C14.0798 35.9444 13.3337 35.2138 13.3337 34.3125C13.3337 33.4112 14.0798 32.6805 15.0003 32.6805C15.9208 32.6805 16.667 33.4112 16.667 34.3125ZM35.0003 34.3125C35.0003 35.2138 34.2541 35.9444 33.3337 35.9444C32.4132 35.9444 31.667 35.2138 31.667 34.3125C31.667 33.4112 32.4132 32.6805 33.3337 32.6805C34.2541 32.6805 35.0003 33.4112 35.0003 34.3125Z" stroke="#D9D9D9" stroke-width="4" stroke-linecap="round" stroke-linejoin="round"/>
</g>
<defs>
<clipPath id="clip0_8_1123">
<rect width="40" height="39.1667" fill="white" transform="translate(0 0.041748)"/>
</clipPath>
</defs>
</svg>
