<svg width="35" height="35" viewBox="0 0 35 35" fill="none" xmlns="http://www.w3.org/2000/svg">
<g id="Thumbs up">
<path id="Icon" d="M10.2087 16.0415L16.042 2.9165C17.2023 2.9165 18.3151 3.37744 19.1356 4.19791C19.9561 5.01838 20.417 6.13118 20.417 7.2915V13.1248H28.6712C29.0939 13.12 29.5127 13.2072 29.8985 13.3804C30.2842 13.5535 30.6277 13.8084 30.9051 14.1275C31.1826 14.4465 31.3873 14.8221 31.5052 15.2281C31.6231 15.6342 31.6513 16.061 31.5878 16.479L29.5753 29.604C29.4699 30.2995 29.1166 30.9334 28.5806 31.389C28.0446 31.8446 27.3621 32.0911 26.6587 32.0832H10.2087M10.2087 16.0415V32.0832M10.2087 16.0415H5.83366C5.06011 16.0415 4.31825 16.3488 3.77126 16.8958C3.22428 17.4428 2.91699 18.1846 2.91699 18.9582V29.1665C2.91699 29.9401 3.22428 30.6819 3.77126 31.2289C4.31825 31.7759 5.06011 32.0832 5.83366 32.0832H10.2087" stroke="white" stroke-width="4" stroke-linecap="round" stroke-linejoin="round"/>
</g>
</svg>
