<svg width="35" height="35" viewBox="0 0 35 35" fill="none" xmlns="http://www.w3.org/2000/svg">
<g id="Thumbs down">
<path id="Icon" d="M24.7921 18.9582L18.9587 32.0832C17.7984 32.0832 16.6856 31.6223 15.8652 30.8018C15.0447 29.9813 14.5837 28.8685 14.5837 27.7082V21.8749H6.32958C5.90679 21.8797 5.48803 21.7925 5.10229 21.6194C4.71654 21.4462 4.37306 21.1913 4.09562 20.8723C3.81818 20.5532 3.61342 20.1776 3.49554 19.7716C3.37766 19.3655 3.34946 18.9387 3.41291 18.5207L5.42541 5.39571C5.53088 4.70022 5.88415 4.06628 6.42013 3.6107C6.95611 3.15512 7.63868 2.90859 8.34208 2.91654H24.7921M24.7921 18.9582V2.91654M24.7921 18.9582H28.6858C29.5112 18.9728 30.3132 18.6838 30.9396 18.1462C31.5659 17.6085 31.9731 16.8596 32.0837 16.0415V5.83321C31.9731 5.01517 31.5659 4.26623 30.9396 3.72857C30.3132 3.19091 29.5112 2.90195 28.6858 2.91654H24.7921" stroke="white" stroke-width="4" stroke-linecap="round" stroke-linejoin="round"/>
</g>
</svg>
